<svg width="30" height="30" viewBox="0 0 30 30" fill="none" xmlns="http://www.w3.org/2000/svg">
<path d="M21.3827 12.8643C18.752 9.43859 16.2549 7.12511 16.0321 2.58713C16.0321 2.45366 15.9875 2.36468 15.8983 2.2757C15.8537 2.05325 15.6307 1.91978 15.4078 2.05325C15.1403 2.05325 14.9174 2.23121 14.9174 2.54264C9.29908 8.59329 -0.198522 23.9423 11.7515 28.3468C17.1469 30.3489 23.2557 27.635 24.3258 21.7623C24.9054 18.6035 23.2555 15.2669 21.3827 12.8643ZM11.796 25.4995C10.5029 24.7432 9.70032 23.2306 9.29901 21.8958C9.12065 21.2284 9.03147 20.5612 9.07606 19.8938C9.3436 18.7371 9.70032 17.6248 10.1016 16.5126C10.3246 17.4913 10.7705 18.4701 11.3947 19.1819C12.8216 20.7392 15.7199 21.6734 16.5225 23.631C17.013 24.8321 15.0957 25.8555 14.2931 26.1224C13.4459 26.3893 12.5094 25.9445 11.796 25.4995Z" fill="#25723E"/>
</svg>
